<svg xmlns="http://www.w3.org/2000/svg" xmlns:xlink="http://www.w3.org/1999/xlink" width="1930" zoomAndPan="magnify" viewBox="0 0 1447.5 703.499984" height="938" preserveAspectRatio="xMidYMid meet" version="1.0"><defs><clipPath id="id1"><path d="M 0.265625 0 L 1446.734375 0 L 1446.734375 703 L 0.265625 703 Z M 0.265625 0 " clip-rule="nonzero"/></clipPath><clipPath id="id2"><path d="M 161 0 L 399 0 L 399 92 L 161 92 Z M 161 0 " clip-rule="nonzero"/></clipPath><clipPath id="id3"><path d="M 193.441406 -108.6875 L 416.054688 27.378906 L 366.398438 108.621094 L 143.785156 -27.449219 Z M 193.441406 -108.6875 " clip-rule="nonzero"/></clipPath><clipPath id="id4"><path d="M 0.265625 0 L 158 0 L 158 230 L 0.265625 230 Z M 0.265625 0 " clip-rule="nonzero"/></clipPath><clipPath id="id5"><path d="M -230.078125 -110.066406 L 179.964844 140.5625 L 112.710938 250.589844 L -297.332031 -0.0390625 Z M -230.078125 -110.066406 " clip-rule="nonzero"/></clipPath><clipPath id="id6"><path d="M 381 591 L 666 591 L 666 703 L 381 703 Z M 381 591 " clip-rule="nonzero"/></clipPath><clipPath id="id7"><path d="M 421.191406 574.480469 L 684.746094 735.574219 L 625.703125 832.167969 L 362.148438 671.074219 Z M 421.191406 574.480469 " clip-rule="nonzero"/></clipPath><clipPath id="id8"><path d="M 58 618 L 343 618 L 343 703 L 58 703 Z M 58 618 " clip-rule="nonzero"/></clipPath><clipPath id="id9"><path d="M 98.554688 601.15625 L 362.109375 762.25 L 303.070312 858.84375 L 39.515625 697.75 Z M 98.554688 601.15625 " clip-rule="nonzero"/></clipPath></defs><g clip-path="url(#id1)"><path fill="#ffffff" d="M 0.265625 0 L 1447.234375 0 L 1447.234375 709.992188 L 0.265625 709.992188 Z M 0.265625 0 " fill-opacity="1" fill-rule="nonzero"/><path fill="#ffffff" d="M 0.265625 0 L 1447.234375 0 L 1447.234375 703.242188 L 0.265625 703.242188 Z M 0.265625 0 " fill-opacity="1" fill-rule="nonzero"/><path fill="#161617" d="M 0.265625 0 L 1447.234375 0 L 1447.234375 703.242188 L 0.265625 703.242188 Z M 0.265625 0 " fill-opacity="1" fill-rule="nonzero"/></g><g clip-path="url(#id2)"><g clip-path="url(#id3)"><path fill="#3871c1" d="M 379.320312 4.929688 C 399.609375 17.328125 404.9375 45.566406 391.226562 68 C 377.515625 90.433594 349.953125 98.566406 329.664062 86.167969 L 180.519531 -4.996094 C 160.230469 -17.394531 154.902344 -45.632812 168.613281 -68.066406 C 182.324219 -90.5 209.886719 -98.636719 230.175781 -86.234375 L 379.320312 4.929688 " fill-opacity="1" fill-rule="nonzero"/></g></g><g clip-path="url(#id4)"><g clip-path="url(#id5)"><path fill="#3871c1" d="M 134.089844 112.523438 C 159.425781 128.007812 164.90625 165.191406 146.335938 195.578125 C 127.765625 225.960938 92.171875 238.035156 66.839844 222.550781 L -251.460938 27.996094 C -276.792969 12.511719 -282.277344 -24.671875 -263.703125 -55.054688 C -245.132812 -85.4375 -209.542969 -97.515625 -184.207031 -82.027344 L 134.089844 112.523438 " fill-opacity="1" fill-rule="nonzero"/></g></g><g clip-path="url(#id6)"><g clip-path="url(#id7)"><path fill="#3871c1" d="M 647.988281 713.105469 C 668.28125 725.511719 671.515625 757.191406 655.210938 783.863281 C 638.90625 810.539062 609.238281 822.105469 588.945312 809.699219 L 398.90625 693.542969 C 378.613281 681.136719 375.378906 649.460938 391.683594 622.785156 C 407.984375 596.113281 437.652344 584.542969 457.949219 596.949219 L 647.988281 713.105469 " fill-opacity="1" fill-rule="nonzero"/></g></g><g clip-path="url(#id8)"><g clip-path="url(#id9)"><path fill="#fa870d" d="M 325.351562 739.78125 C 345.648438 752.1875 348.882812 783.867188 332.578125 810.539062 C 316.273438 837.210938 286.605469 848.78125 266.3125 836.375 L 76.273438 720.21875 C 55.980469 707.8125 52.746094 676.136719 69.046875 649.460938 C 85.351562 622.789062 115.019531 611.21875 135.3125 623.625 L 325.351562 739.78125 " fill-opacity="1" fill-rule="nonzero"/></g></g></svg>